{"title":"Sammys Great Escape 2013 DVDRiP XViD-ph2","uid":8757501,"size":737171545,"categoryP":"video","categoryS":"movies","magnet":"?xt=urn:btih:bda71b9c3f3dd4ef9253368ed749c0e698ad7cbd&amp;dn=Sammys+Great+Escape+2013+DVDRiP+XViD-ph2&amp;tr=udp%3A%2F%2Ftracker.openbittorrent.com%3A80&amp;tr=udp%3A%2F%2Fopen.demonii.com%3A1337&amp;tr=udp%3A%2F%2Ftracker.coppersurfer.tk%3A6969&amp;tr=udp%3A%2F%2Fexodus.desync.com%3A6969","seeders":1,"leechers":0,"uploader":"srkfan","files":3,"time":1375177789,"description":" &lt;a href=&quot;http://img577.imageshack.us/img577/9420/sroy.jpg&quot; rel=&quot;nofollow&quot; target=&quot;_NEW&quot;&gt;http://img577.imageshack.us/img577/9420/sroy.jpg&lt;/a&gt;\n\nGeneral \nComplete name                            : Sammys Great Escape 2013 DVDRip XviD-ph2.avi \nFormat                                 : AVI \nFormat/Info                              : Audio Video Interleave \nFile size                                : 699 MiB \nDuration                               : 1h 28mn \nOverall bit rate mode                    : Variable \nOverall bit rate                       : 1 099 Kbps \nWriting application                      : VirtualDubMod 1.5.4.1 (build 2178/release) \nWriting library                          : VirtualDubMod build 2178/release \n\nVideo \nID                                     : 0 \nFormat                                 : MPEG-4 Visual \nFormat profile                         : Advanced Simple@L5 \nFormat settings, BVOP                    : 1 \nFormat settings, QPel                    : No \nFormat settings, GMC                   : No warppoints \nFormat settings, Matrix                  : Custom \nCodec ID                               : XVID \nCodec ID/Hint                            : XviD \nDuration                               : 1h 28mn \nBit rate                               : 967 Kbps \nWidth                                    : 640 pixels \nHeight                                 : 368 pixels \nDisplay aspect ratio                   : 1.739 \nFrame rate                             : 25.000 fps \nColor space                              : YUV \nChroma subsampling                     : 4:2:0 \nBit depth                                : 8 bits \nScan type                                : Progressive \nCompression mode                       : Lossy \nBits/(Pixel*Frame)                     : 0.164 \nStream size                              : 616 MiB (88%) \nWriting library                          : XviD 1.2.1 (UTC 2008-12-04) \n\nAudio \nID                                     : 1 \nFormat                                 : MPEG Audio \nFormat version                         : Version 1 \nFormat profile                         : Layer 3 \nMode                                   : Joint stereo \nMode extension                         : MS Stereo \nCodec ID                               : 55 \nCodec ID/Hint                            : MP3 \nDuration                               : 1h 28mn \nBit rate mode                            : Variable \nBit rate                               : 118 Kbps \nNominal bit rate                       : 128 Kbps \nChannel(s)                             : 2 channels \nSampling rate                            : 48.0 KHz \nCompression mode                       : Lossy \nStream size                              : 75.4 MiB (11%) \nAlignment                                : Aligned on interleaves \nInterleave, duration                   : 24 ms (0.60 video frame) \nInterleave, preload duration           : 155 ms \nWriting library                          : LAME3.98r \nEncoding settings                        : -m j -V 4 -q 2 -lowpass 17 --abr 128 \nLanguage                               : English english subs in torrent\n &lt;a href=&quot;\nhttp://www.imdb.com/title/tt2288005/&quot; rel=&quot;nofollow&quot; target=&quot;_NEW&quot;&gt;\nhttp://www.imdb.com/title/tt2288005/&lt;/a&gt;\n &lt;a href=&quot;\nhttp://foto-cell.com/dosyalar/5e36b5752514a4b.png&quot; rel=&quot;nofollow&quot; target=&quot;_NEW&quot;&gt;\nhttp://foto-cell.com/dosyalar/5e36b5752514a4b.png&lt;/a&gt; &lt;a href=&quot;\nhttp://foto-cell.com/dosyalar/3da00f24aa4fd0d.png&quot; rel=&quot;nofollow&quot; target=&quot;_NEW&quot;&gt;\nhttp://foto-cell.com/dosyalar/3da00f24aa4fd0d.png&lt;/a&gt; &lt;a href=&quot;\nhttp://foto-cell.com/dosyalar/9aeab284b9a2de1.png&quot; rel=&quot;nofollow&quot; target=&quot;_NEW&quot;&gt;\nhttp://foto-cell.com/dosyalar/9aeab284b9a2de1.png&lt;/a&gt; &lt;a href=&quot;\nhttp://foto-cell.com/dosyalar/ba8a37d2fde6fa6.png&quot; rel=&quot;nofollow&quot; target=&quot;_NEW&quot;&gt;\nhttp://foto-cell.com/dosyalar/ba8a37d2fde6fa6.png&lt;/a&gt;","torrent":{"xt":"urn:btih:bda71b9c3f3dd4ef9253368ed749c0e698ad7cbd","amp;dn":"Sammys+Great+Escape+2013+DVDRiP+XViD-ph2","amp;tr":["udp%3A%2F%2Ftracker.openbittorrent.com%3A80","udp%3A%2F%2Fopen.demonii.com%3A1337","udp%3A%2F%2Ftracker.coppersurfer.tk%3A6969","udp%3A%2F%2Fexodus.desync.com%3A6969"],"infoHash":"bda71b9c3f3dd4ef9253368ed749c0e698ad7cbd","infoHashBuffer":{"type":"Buffer","data":[189,167,27,156,63,61,212,239,146,83,54,142,215,73,192,230,152,173,124,189]},"announce":[],"urlList":[]}}